<svg width="18" height="18" viewBox="0 0 18 18" fill="none" xmlns="http://www.w3.org/2000/svg">
<rect x="0.5" y="2.5" width="17" height="9" rx="0.5" stroke="black"/>
<path d="M2.16193 13.5909V12.6364H5.95455V13.5909H4.64205V17H3.47443V13.5909H2.16193ZM7.51101 17.0597C7.16158 17.0597 6.86044 16.9929 6.6076 16.8594C6.35618 16.7244 6.16229 16.5312 6.02592 16.2798C5.89098 16.027 5.82351 15.7244 5.82351 15.3722C5.82351 15.0341 5.89169 14.7386 6.02805 14.4858C6.16442 14.233 6.35689 14.0362 6.60547 13.8956C6.85405 13.755 7.14737 13.6847 7.48544 13.6847C7.7326 13.6847 7.95632 13.723 8.15661 13.7997C8.35689 13.8764 8.52805 13.9879 8.6701 14.1342C8.81214 14.2791 8.92152 14.4553 8.99822 14.6626C9.07493 14.87 9.11328 15.1037 9.11328 15.3636V15.6364H6.18999V14.9886H8.03089C8.02947 14.8949 8.00533 14.8125 7.95845 14.7415C7.913 14.669 7.85121 14.6129 7.77308 14.5732C7.69638 14.532 7.60902 14.5114 7.51101 14.5114C7.41584 14.5114 7.32848 14.532 7.24893 14.5732C7.16939 14.6129 7.10547 14.6683 7.05717 14.7393C7.0103 14.8104 6.98544 14.8935 6.9826 14.9886V15.6875C6.9826 15.7926 7.00462 15.8864 7.04865 15.9688C7.09268 16.0511 7.15589 16.1158 7.23828 16.1626C7.32067 16.2095 7.4201 16.233 7.53658 16.233C7.61754 16.233 7.69141 16.2216 7.75817 16.1989C7.82635 16.1761 7.88459 16.1435 7.93288 16.1009C7.98118 16.0568 8.01669 16.0043 8.03942 15.9432H9.11328C9.07635 16.1705 8.98899 16.3679 8.85121 16.5355C8.71342 16.7017 8.53089 16.831 8.30362 16.9233C8.07777 17.0142 7.81357 17.0597 7.51101 17.0597ZM10.5723 13.7273L11.0495 14.7415L11.5524 13.7273H12.72L11.8422 15.3636L12.7626 17H11.6035L11.0495 15.9602L10.5126 17H9.33647L10.2654 15.3636L9.39613 13.7273H10.5723ZM15.0898 13.7273V14.5795H12.9336V13.7273H15.0898ZM13.3512 12.9432H14.5273V15.9474C14.5273 15.9929 14.5352 16.0312 14.5508 16.0625C14.5664 16.0923 14.5906 16.1151 14.6232 16.1307C14.6559 16.1449 14.6978 16.152 14.7489 16.152C14.7844 16.152 14.8256 16.1477 14.8725 16.1392C14.9208 16.1307 14.9563 16.1236 14.979 16.1179L15.1495 16.9446C15.0969 16.9602 15.0217 16.9794 14.9237 17.0021C14.8271 17.0249 14.712 17.0398 14.5785 17.0469C14.3086 17.0611 14.082 17.0334 13.8988 16.9638C13.7156 16.8928 13.5778 16.7812 13.4854 16.6293C13.3931 16.4773 13.3484 16.2869 13.3512 16.0582V12.9432Z" fill="#181818"/>
</svg>
