<svg width="18" height="19" viewBox="0 0 18 19" fill="none" xmlns="http://www.w3.org/2000/svg">
<rect x="0.5" y="0.5" width="17" height="13" rx="0.5" stroke="black"/>
<path d="M5.19318 15.4034V15.0909H7.375V15.4034H6.46023V18H6.10795V15.4034H5.19318ZM8.47159 18.0455C8.26136 18.0455 8.08002 17.9991 7.92756 17.9062C7.77604 17.8125 7.65909 17.6818 7.5767 17.5142C7.49527 17.3456 7.45455 17.1496 7.45455 16.9261C7.45455 16.7027 7.49527 16.5057 7.5767 16.3352C7.65909 16.1638 7.77367 16.0303 7.92045 15.9347C8.06818 15.8381 8.24053 15.7898 8.4375 15.7898C8.55114 15.7898 8.66335 15.8087 8.77415 15.8466C8.88494 15.8845 8.9858 15.946 9.0767 16.0312C9.16761 16.1155 9.24006 16.2273 9.29403 16.3665C9.34801 16.5057 9.375 16.6771 9.375 16.8807V17.0227H7.69318V16.733H9.03409C9.03409 16.6098 9.00947 16.5 8.96023 16.4034C8.91193 16.3068 8.8428 16.2306 8.75284 16.1747C8.66383 16.1188 8.55871 16.0909 8.4375 16.0909C8.30398 16.0909 8.18845 16.1241 8.09091 16.1903C7.99432 16.2557 7.91998 16.3409 7.8679 16.446C7.81581 16.5511 7.78977 16.6638 7.78977 16.7841V16.9773C7.78977 17.142 7.81818 17.2817 7.875 17.3963C7.93277 17.5099 8.01278 17.5966 8.11506 17.6562C8.21733 17.715 8.33617 17.7443 8.47159 17.7443C8.55966 17.7443 8.6392 17.732 8.71023 17.7074C8.7822 17.6818 8.84422 17.6439 8.89631 17.5938C8.94839 17.5426 8.98864 17.4792 9.01705 17.4034L9.34091 17.4943C9.30682 17.6042 9.24953 17.7008 9.16903 17.7841C9.08854 17.8665 8.98911 17.9309 8.87074 17.9773C8.75237 18.0227 8.61932 18.0455 8.47159 18.0455ZM10.0763 15.8182L10.5991 16.7102L11.1218 15.8182H11.5082L10.8036 16.9091L11.5082 18H11.1218L10.5991 17.1534L10.0763 18H9.68999L10.3832 16.9091L9.68999 15.8182H10.0763ZM12.9354 15.8182V16.1023H11.8047V15.8182H12.9354ZM12.1342 15.2955H12.4695V17.375C12.4695 17.4697 12.4832 17.5407 12.5107 17.5881C12.5391 17.6345 12.575 17.6657 12.6186 17.6818C12.6631 17.697 12.71 17.7045 12.7592 17.7045C12.7962 17.7045 12.8265 17.7027 12.8501 17.6989C12.8738 17.6941 12.8928 17.6903 12.907 17.6875L12.9751 17.9886C12.9524 17.9972 12.9207 18.0057 12.88 18.0142C12.8393 18.0237 12.7876 18.0284 12.7251 18.0284C12.6304 18.0284 12.5376 18.008 12.4467 17.9673C12.3568 17.9266 12.282 17.8646 12.2223 17.7812C12.1636 17.6979 12.1342 17.5928 12.1342 17.4659V15.2955Z" fill="#181818"/>
</svg>
